<?xml version="1.0" standalone="no"?>
<!DOCTYPE svg PUBLIC "-//W3C//DTD SVG 20010904//EN"
 "http://www.w3.org/TR/2001/REC-SVG-20010904/DTD/svg10.dtd">
<svg version="1.0" xmlns="http://www.w3.org/2000/svg"
 width="493.000000pt" height="507.000000pt" viewBox="0 0 493.000000 507.000000"
 preserveAspectRatio="xMidYMid meet">

<g transform="translate(0.000000,507.000000) scale(0.100000,-0.100000)"
fill="#000000" stroke="none">
<path d="M2355 3641 l-110 -6 -3 -617 -2 -616 77 -6 c43 -4 104 -9 136 -12 61
-5 75 6 29 25 -48 20 -97 76 -117 133 -13 41 -19 98 -22 246 -6 224 -10 218
95 155 68 -43 110 -81 332 -306 85 -87 177 -173 205 -192 62 -43 165 -70 229
-61 47 7 55 26 12 26 -13 0 -52 15 -86 33 -49 25 -111 78 -269 232 -211 206
-236 227 -325 277 l-51 29 54 -6 c70 -8 188 -62 254 -117 29 -24 115 -104 192
-178 168 -161 227 -204 317 -227 63 -16 69 -16 122 0 31 10 60 26 66 37 9 17
6 18 -44 13 -44 -5 -64 -1 -111 21 -71 32 -163 98 -235 168 -229 221 -302 276
-396 296 l-38 8 56 31 c112 64 166 200 138 353 -14 77 -38 127 -88 182 -71 79
-149 94 -417 79z m258 -85 c107 -38 149 -110 149 -249 0 -118 -31 -185 -106
-232 -48 -29 -54 -30 -165 -30 -64 0 -125 3 -135 8 -18 7 -19 18 -13 220 3
116 10 225 16 240 6 16 25 34 43 42 42 18 161 18 211 1z"/>
<path d="M2559 3351 c-22 -17 -27 -17 -44 -5 -28 21 -54 17 -66 -10 -8 -17 -8
-29 0 -45 14 -25 38 -27 68 -6 18 13 22 12 38 -5 20 -22 55 -26 73 -8 20 20
15 76 -7 88 -27 14 -35 13 -62 -9z m61 -36 c0 -19 -6 -35 -14 -38 -17 -7 -56
19 -56 38 0 19 39 45 56 38 8 -3 14 -19 14 -38z m-115 21 c16 -12 17 -16 6
-30 -21 -25 -51 -20 -51 7 0 39 14 46 45 23z"/>
<path d="M1507 3583 c-4 -27 -9 -95 -13 -152 -8 -122 5 -133 41 -33 51 140 75
151 311 152 l170 0 17 -35 c15 -32 17 -83 17 -468 0 -546 -5 -572 -118 -627
-91 -44 -74 -47 166 -23 l62 6 0 613 0 614 -324 0 -323 0 -6 -47z"/>
<path d="M2910 3517 c58 -128 61 -236 10 -380 l-27 -78 26 17 c63 40 92 68
118 111 24 41 27 57 27 133 0 72 -4 92 -24 128 -22 39 -128 132 -150 132 -5 0
4 -28 20 -63z"/>
</g>
</svg>
